<svg xmlns="http://www.w3.org/2000/svg" viewBox="0 0 128 24"><defs><linearGradient id="b" x1="35.59%" x2="35.59%" y1="-243.71%" y2="357.57%"><stop offset="0%" stop-color="#FF0"/><stop offset="100%" stop-color="#F0F"/></linearGradient><filter id="a" width="106.2%" height="133.3%" x="-3.1%" y="-16.7%" filterUnits="objectBoundingBox"><feOffset dy="1" in="SourceAlpha" result="shadowOffsetOuter1"/><feGaussianBlur in="shadowOffsetOuter1" result="shadowBlurOuter1" stdDeviation=".5"/><feColorMatrix in="shadowBlurOuter1" result="shadowMatrixOuter1" values="0 0 0 0 0.141176471 0 0 0 0 0.121568627 0 0 0 0 0.254901961 0 0 0 0.7 0"/><feMerge><feMergeNode in="shadowMatrixOuter1"/><feMergeNode in="SourceGraphic"/></feMerge></filter></defs><g fill="none" fill-rule="evenodd" filter="url(#a)"><path fill="#FFF" d="M54.76 7.7v5.15h3.44v.3h-1.42c-1.11 0-2.02.97-2.02 2.18v5.06c0 1.84.92 3.1 2.3 3.16h.6v.3h-.59l-2.12-.01c-2.23 0-4.06-1.45-4.13-3.25v-7.45h-1.5v-.29a5.16 5.16 0 005.16-5.15h.28zm-6.68 4.7v4.26l-.28.02a5.14 5.14 0 00-.1-.61V16a4 4 0 00-1.4-2.32l-.06-.04a4.53 4.53 0 00-2.46-.7c-.73 0-1.33.54-1.33 1.21 0 .39.19.73.53.97A116.98 116.98 0 0047 17.66l.04.02c.9.65 1.46 1.59 1.46 2.62 0 1.95-2 3.54-4.46 3.54h-.17a5.26 5.26 0 01-2.96-1.01 1.04 1.04 0 00-.56-.18c-.46 0-.72.38-.72 1.04h-.29v-4.7l.3-.01c.1 2.61 1.46 3.63 1.48 3.64.75.55 1.75.9 2.82.92a1.33 1.33 0 001.26-1.33c0-.43-.19-.8-.53-1.06a98.4 98.4 0 00-3.38-2.33 4.26 4.26 0 01-.32-.21l-.01-.01-.1-.07a3.12 3.12 0 01-1.28-2.46c0-1.89 1.88-3.42 4.2-3.42a4.8 4.8 0 012.65.77l.03.02c.12.08.26.12.4.12.46 0 .93-.4.93-1.16h.28zM8.57.18v6.77h10.29v8.12l-.29.02c-.45-4.55-3.83-7.84-8.03-7.84H8.57v13.8c0 1.24 1 2.26 2.23 2.26h1.03v.29H.12v-.3h.96c1.1 0 2.03-.82 2.2-1.9V7.25H.12v-.3h.72c4.1 0 7.44-3.04 7.44-6.77h.29zM34.6 12.72c.86-.09 1.49-.16 2.2.17v.01a2.3 2.3 0 011.37 2.11c0 1.27-1.02 2.3-2.27 2.3s-2.26-1.03-2.26-2.3c0-.85.47-1.6 1.15-2h-.14a.88.88 0 01-.02 0l-.93.1c-.8.15-1.34.8-1.43 1.66v6.61a2.44 2.44 0 002.22 1.93v.29h-6.17v-8.87a1.73 1.73 0 00-1.8-1.59c-1.1 0-1.84.76-1.84 1.88v.56-.01 8.03H18.5v-.3c.92 0 2.02-.83 2.23-1.93v-8.52H32.1a25.12 25.12 0 002.5-.13zm-21.58-.64a3.04 3.04 0 002.77 3.05h.24v.3h-.23a3.04 3.04 0 00-2.79 3.05h-.29a3.04 3.04 0 00-2.77-3.06h-.24v-.3h.23a3.04 3.04 0 002.8-3.04zm9.73-5.22c1.15 0 2.1.95 2.1 2.13 0 1.17-.95 2.12-2.1 2.12-1.16 0-2.1-.95-2.1-2.12 0-1.18.94-2.13 2.1-2.13z"/><path fill="url(#b)" d="M92.39 12.38v4.56h-.29c-.12-.36-.27-.76-.45-1.2a5.98 5.98 0 00-.77-1.33 4.27 4.27 0 00-1.06-1.03 2.57 2.57 0 00-1.42-.36c-.42 0-.76.1-1.02.3a.93.93 0 00-.39.76c0 .35.1.62.28.82.18.2.46.4.81.62.36.22.85.5 1.47.84.61.34 1.17.68 1.66 1 .49.34.9.75 1.23 1.25.32.49.49 1.05.49 1.69 0 1.16-.44 2.04-1.3 2.63a5.5 5.5 0 01-3.17.88c-2.27 0-2.99-1.34-3.64-1.34-.48 0-.73.76-.78 1.5h-.31v-5.08h.29a11 11 0 001.16 2.7c.39.57.8 1 1.26 1.29.46.29 1.01.43 1.66.43.38 0 .7-.1.96-.3a1 1 0 00.4-.86c0-1.03-.84-1.51-1.29-1.78a57.2 57.2 0 00-1.55-.88 11.1 11.1 0 01-1.47-.95c-.4-.31-.7-.66-.92-1.06-.21-.39-.32-.84-.32-1.36 0-1.12.41-1.98 1.25-2.6a5.03 5.03 0 013.06-.91c1.47 0 2.62 1.06 3.18 1.06.5 0 .68-.94.68-1.29h.31zm29.48.23c3.35 0 6.06 2.5 6.06 5.6 0 3.1-2.71 5.6-6.06 5.6-3.34 0-6.06-2.5-6.06-5.6 0-3.1 2.72-5.6 6.06-5.6zm-57.4 0a7.21 7.21 0 013.37.8c.49.25.95.6 1.4 1.07.05.06.1.13.12.19a1.98 1.98 0 01-1.58 3.1 1.96 1.96 0 01-1.94-2.15v-.05c.05-.36.18-.76.42-1l.06-.08c.32-.43.35-1.52-1.3-1.52-.41 0-.76.17-1.04.5-.29.33-.5.74-.66 1.22a8.3 8.3 0 00-.34 1.58c-.06.57-.1 1.12-.1 1.64 0 1.38.23 2.58.68 3.6a2.43 2.43 0 002.41 1.53 3.2 3.2 0 002.15-.78 4.9 4.9 0 001.39-1.99l.33.18c-1 2.24-2.78 3.36-5.36 3.36-1.7 0-3.15-.51-4.34-1.53a5.06 5.06 0 01-1.79-4.05c0-1.7.58-3.05 1.75-4.08a6.39 6.39 0 014.38-1.54zm11.9-.11c3.6 0 4.86 2.1 4.86 3.63v4.82c0 .48.04.85.13 1.11.07.27.26.41.55.41a.66.66 0 00.56-.3l.31.24c-.09.17-.2.31-.31.42-.47.43-.9.7-1.26.8-.38.12-.85.18-1.43.18a3 3 0 01-1.71-.5 2 2 0 01-.9-1.34 2.6 2.6 0 01-1.2 1.38c-.56.3-1.28.46-2.18.46-.95 0-3.21-.44-3.21-2.82 0-2.02 1.88-2.96 3.48-3.13.8-.1 1.4-.17 1.78-.27.38-.1.65-.2.81-.31.16-.12.25-.31.25-.58l-.03-2.07c0-.6-.07-1.01-.22-1.27-.14-.26-.45-.5-.92-.5-1.24.03-1.36.61-1.04.86a1.98 1.98 0 01-1.23 3.5 1.96 1.96 0 01-1.94-1.97 1.98 1.98 0 01.95-1.7 6.9 6.9 0 013.9-1.05zm34.01.1c3.02 0 3.9 2.22 3.9 4.04v5.2c.08 1.22 1.03 1.37 1.35 1.38h.1v.36h-5.75v-8.45c0-1.08-.81-1.5-1.3-1.5a2.2 2.2 0 00-1.9 1.17v8.78H93.73v-.36h.1c.34-.01 1.35-.17 1.35-1.54v-6.94c0-1.64-1.45-1.54-1.45-1.54h.03-.03v-.36h5.8v8.84c0 1.37 1.02 1.53 1.35 1.54h.21c.33-.01 1.35-.17 1.35-1.54v-6.94c0-1.64-1.46-1.54-1.46-1.54h.03-.03v-.36h5.8v1.48a4.33 4.33 0 013.6-1.71zm11.5.37c-.9 0-1.61.73-1.61 1.63v7.17c0 .9.72 1.63 1.6 1.63.89 0 1.6-.73 1.6-1.63V14.6c0-.9-.71-1.63-1.6-1.63zm-45.05 4.47c-.13.18-.38.35-.74.5a2 2 0 00-1.08 1.35 7.17 7.17 0 00-.12 1.32c0 .68.05 1.23.15 1.63.1.41.34.62.7.62.29 0 .54-.12.75-.34.21-.23.35-.47.4-.73v-4.33zm20.6-10.55c1.15 0 2.1.95 2.1 2.13 0 1.17-.95 2.12-2.1 2.12-1.16 0-2.1-.95-2.1-2.13 0-1.17.94-2.12 2.1-2.12z"/></g></svg>